<svg xmlns="http://www.w3.org/2000/svg" viewBox="0 0 137.55 122.81"><defs><style>.cls-1{fill:#888;}</style></defs><title>Ресурс 9</title><g id="Слой_2" data-name="Слой 2"><g id="Слой_1-2" data-name="Слой 1"><path class="cls-1" d="M134.32,22.84h0c-.25-.58-.51-1.15-.78-1.72l0-.06c-.26-.55-.54-1.08-.83-1.61l-.05-.09c-.28-.52-.58-1-.88-1.54l-.06-.08q-.47-.77-1-1.5l0-.05a38.33,38.33,0,0,0-7.19-7.94l-.19-.15-1.13-.89L121.84,7l-1-.73-.44-.29-.94-.61L118.94,5l-.9-.52-.55-.3-.89-.47L116,3.44,115.14,3l-.6-.26-.87-.35-.62-.24-.88-.3-.61-.2-.92-.27-.59-.16c-.33-.09-.67-.17-1-.24L108.55.9c-.5-.1-1-.19-1.51-.27A56.87,56.87,0,0,0,100.83,0c-.65,0-1.29,0-1.92,0h0c-9,0-15.53,2.55-20.12,5.74a28.79,28.79,0,0,0-6.22,5.86,24.32,24.32,0,0,0-3.8,6.55A26.82,26.82,0,0,0,60.9,7.38c-.67-.55-1.38-1.1-2.14-1.64A31.34,31.34,0,0,0,55,3.5a29.79,29.79,0,0,0-3-1.27,33.35,33.35,0,0,0-3.33-1A35.8,35.8,0,0,0,44.94.45,42.82,42.82,0,0,0,38.64,0h0C38,0,37.37,0,36.72,0a56.87,56.87,0,0,0-6.21.59C30,.71,29.5.8,29,.9L28.51,1q-.51.11-1,.24l-.58.16L26,1.68l-.61.2-.89.3-.61.24L23,2.77,22.41,3l-.88.41L21,3.72l-.89.47-.55.29L18.6,5c-.16.11-.33.21-.5.31l-.94.61-.44.29-1,.73-.34.25-1.13.89-.19.15a38.65,38.65,0,0,0-7.2,7.94l0,.05c-.33.49-.65,1-1,1.5l0,.08c-.31.5-.61,1-.9,1.54l0,.08C4.58,20,4.3,20.5,4,21.05l0,.06C-7,43.78,1.47,82.27,68.77,122.81h0C134.4,83.29,144.05,45.7,134.32,22.84ZM118.08,66.71c-9.75,15-26.32,29.89-49.31,44.36-23-14.47-39.56-29.38-49.3-44.36-7.84-12-10.9-23.84-8.86-34.1A29,29,0,0,1,19,17.26a24.55,24.55,0,0,1,13-6.74A46.33,46.33,0,0,1,38.63,10a40.84,40.84,0,0,1,7.77.74,31.57,31.57,0,0,1,3.25,1.34,19.88,19.88,0,0,1,5.7,3.72c9.06,7.48,12.53,18.83,13.26,21.59l.16.27.17-.27c.73-2.76,4.2-14.1,13.24-21.57a19.34,19.34,0,0,1,5.73-3.74,28.16,28.16,0,0,1,3.28-1.35A41.07,41.07,0,0,1,98.91,10a46.35,46.35,0,0,1,6.66.52,24.55,24.55,0,0,1,13,6.74,29,29,0,0,1,8.34,15.35C129,42.87,125.92,54.66,118.08,66.71Z"/></g></g></svg>